<?xml version="1.0" encoding="UTF-8" standalone="no"?>
<!-- Generator: Adobe Illustrator 16.0.3, SVG Export Plug-In . SVG Version: 6.00 Build 0)  -->

<svg
   xmlns:dc="http://purl.org/dc/elements/1.1/"
   xmlns:cc="http://creativecommons.org/ns#"
   xmlns:rdf="http://www.w3.org/1999/02/22-rdf-syntax-ns#"
   xmlns:svg="http://www.w3.org/2000/svg"
   xmlns="http://www.w3.org/2000/svg"
   xmlns:sodipodi="http://sodipodi.sourceforge.net/DTD/sodipodi-0.dtd"
   xmlns:inkscape="http://www.inkscape.org/namespaces/inkscape"
   version="1.1"
   x="0px"
   y="0px"
   width="240px"
   height="240px"
   viewBox="0 0 240 240"
   enable-background="new 0 0 240 240"
   xml:space="preserve"
   id="svg4420"
   sodipodi:docname="buy_hover.svg"
   inkscape:version="0.92.4 (5da689c313, 2019-01-14)"><metadata
   id="metadata4426"><rdf:RDF><cc:Work
       rdf:about=""><dc:format>image/svg+xml</dc:format><dc:type
         rdf:resource="http://purl.org/dc/dcmitype/StillImage" /><dc:title></dc:title></cc:Work></rdf:RDF></metadata><defs
   id="defs4424" /><sodipodi:namedview
   pagecolor="#ffffff"
   bordercolor="#666666"
   borderopacity="1"
   objecttolerance="10"
   gridtolerance="10"
   guidetolerance="10"
   inkscape:pageopacity="0"
   inkscape:pageshadow="2"
   inkscape:window-width="1366"
   inkscape:window-height="705"
   id="namedview4422"
   showgrid="false"
   inkscape:zoom="0.98333333"
   inkscape:cx="120"
   inkscape:cy="120"
   inkscape:window-x="-8"
   inkscape:window-y="-8"
   inkscape:window-maximized="1"
   inkscape:current-layer="svg4420" />
<g
   id="Ellipse_1_1_"
   enable-background="new    "
   style="fill:#00ff00">
	<g
   id="Ellipse_1"
   style="fill:#00ff00">
		<g
   id="g4393"
   style="fill:#00ff00">
			<ellipse
   fill-rule="evenodd"
   clip-rule="evenodd"
   fill="#90F400"
   cx="126.6"
   cy="130.32"
   rx="0.6"
   ry="0.24"
   id="ellipse4391"
   style="fill:#00ff00" />
		</g>
	</g>
	<g
   id="layer1"
   style="fill:#00ff00">
		<g
   id="g5189"
   transform="matrix(0.26458333,0,0,0.26458333,79.714271,103.05945)"
   style="fill:#00ff00">
			<g
   id="g5131"
   style="fill:#00ff00">
				<path
   id="path5125"
   fill="#0096FF"
   d="M484.45-106.393c-3.835-4.966-9.763-7.876-16.033-7.876H-47.211l-22.52-86.63      c-2.322-8.934-10.386-15.17-19.619-15.17h-105.163c-11.195,0-20.269,9.076-20.269,20.269c0,11.195,9.074,20.271,20.269,20.271      h89.489l22.52,86.632c0,0.002,0,0.002,0.004,0.005l79.405,305.315c2.318,8.932,10.385,15.166,19.616,15.166h372.474      c9.231,0,17.296-6.234,19.617-15.166l79.414-305.321C489.607-94.968,488.289-101.432,484.45-106.393z M103.79,191.051H32.195      l-15.923-61.225h87.518V191.051z M103.79,89.288H5.729l-15.932-61.262H103.79V89.288z M103.79-12.514H-20.748l-15.923-61.214      H103.79V-12.514z M261.196,191.051H144.329v-61.225h116.866V191.051z M261.196,89.288H144.329V28.026h116.866V89.288z       M261.196-12.514H144.329v-61.214h116.866V-12.514z M373.327,191.051h-71.59v-61.225h87.516L373.327,191.051z M399.795,89.288      h-98.057V28.026h113.995L399.795,89.288z M426.277-12.514h-124.54v-61.214h140.466L426.277-12.514z"
   style="fill:#00ff00" />
				<path
   id="path5127"
   fill="#0096FF"
   d="M70.293,248.08c-40.824,0-74.039,33.215-74.039,74.037      c0,40.833,33.215,74.055,74.039,74.055c40.826,0,74.037-33.222,74.037-74.055C144.329,281.295,111.118,248.08,70.293,248.08z       M70.293,355.635c-18.471,0-33.501-15.037-33.501-33.518c0-18.473,15.03-33.503,33.501-33.503      c18.468,0,33.497,15.037,33.497,33.503C103.79,340.598,88.764,355.635,70.293,355.635z"
   style="fill:#00ff00" />
				<path
   id="path5129"
   fill="#0096FF"
   d="M335.229,248.08c-40.818,0-74.029,33.215-74.029,74.037      c0,40.833,33.211,74.055,74.029,74.055c40.829,0,74.041-33.222,74.041-74.055C409.269,281.295,376.051,248.08,335.229,248.08z       M335.229,355.635c-18.462,0-33.492-15.037-33.492-33.518c0-18.473,15.03-33.503,33.492-33.503      c18.477,0,33.503,15.037,33.503,33.503C368.732,340.598,353.698,355.635,335.229,355.635z"
   style="fill:#00ff00" />
			</g>
			<g
   id="g5133"
   style="fill:#00ff00">
			</g>
			<g
   id="g5135"
   style="fill:#00ff00">
			</g>
			<g
   id="g5137"
   style="fill:#00ff00">
			</g>
			<g
   id="g5139"
   style="fill:#00ff00">
			</g>
			<g
   id="g5141"
   style="fill:#00ff00">
			</g>
			<g
   id="g5143"
   style="fill:#00ff00">
			</g>
			<g
   id="g5145"
   style="fill:#00ff00">
			</g>
			<g
   id="g5147"
   style="fill:#00ff00">
			</g>
			<g
   id="g5149"
   style="fill:#00ff00">
			</g>
			<g
   id="g5151"
   style="fill:#00ff00">
			</g>
			<g
   id="g5153"
   style="fill:#00ff00">
			</g>
			<g
   id="g5155"
   style="fill:#00ff00">
			</g>
			<g
   id="g5157"
   style="fill:#00ff00">
			</g>
			<g
   id="g5159"
   style="fill:#00ff00">
			</g>
			<g
   id="g5161"
   style="fill:#00ff00">
			</g>
		</g>
	</g>
</g>
<g
   id="G">
</g>
<g
   id="Rechteck_1_Kopie_3_xA0_Bild_1_">
</g>
</svg>