<?xml version="1.0" encoding="UTF-8" standalone="no"?>
<!-- Generator: Adobe Illustrator 16.0.3, SVG Export Plug-In . SVG Version: 6.00 Build 0)  -->

<svg
   xmlns:dc="http://purl.org/dc/elements/1.1/"
   xmlns:cc="http://creativecommons.org/ns#"
   xmlns:rdf="http://www.w3.org/1999/02/22-rdf-syntax-ns#"
   xmlns:svg="http://www.w3.org/2000/svg"
   xmlns="http://www.w3.org/2000/svg"
   xmlns:sodipodi="http://sodipodi.sourceforge.net/DTD/sodipodi-0.dtd"
   xmlns:inkscape="http://www.inkscape.org/namespaces/inkscape"
   version="1.1"
   x="0px"
   y="0px"
   width="240px"
   height="240px"
   viewBox="0 0 240 240"
   enable-background="new 0 0 240 240"
   xml:space="preserve"
   id="svg4252"
   sodipodi:docname="delete_hover.svg"
   inkscape:version="0.92.4 (5da689c313, 2019-01-14)"><metadata
   id="metadata4258"><rdf:RDF><cc:Work
       rdf:about=""><dc:format>image/svg+xml</dc:format><dc:type
         rdf:resource="http://purl.org/dc/dcmitype/StillImage" /><dc:title></dc:title></cc:Work></rdf:RDF></metadata><defs
   id="defs4256" /><sodipodi:namedview
   pagecolor="#ffffff"
   bordercolor="#666666"
   borderopacity="1"
   objecttolerance="10"
   gridtolerance="10"
   guidetolerance="10"
   inkscape:pageopacity="0"
   inkscape:pageshadow="2"
   inkscape:window-width="1366"
   inkscape:window-height="705"
   id="namedview4254"
   showgrid="false"
   inkscape:zoom="2.2333333"
   inkscape:cx="120"
   inkscape:cy="120"
   inkscape:window-x="-8"
   inkscape:window-y="-8"
   inkscape:window-maximized="1"
   inkscape:current-layer="svg4252" />
<g
   id="Ellipse_1_1_"
   enable-background="new    "
   style="fill:#ff0000">
	<g
   id="layer1"
   style="fill:#ff0000">
		<g
   id="g5189"
   transform="matrix(0.26458333,0,0,0.26458333,79.714271,103.05945)"
   style="fill:#ff0000">
			<g
   id="g5133"
   style="fill:#ff0000">
			</g>
			<g
   id="g5135"
   style="fill:#ff0000">
			</g>
			<g
   id="g5137"
   style="fill:#ff0000">
			</g>
			<g
   id="g5139"
   style="fill:#ff0000">
			</g>
			<g
   id="g5141"
   style="fill:#ff0000">
			</g>
			<g
   id="g5143"
   style="fill:#ff0000">
			</g>
			<g
   id="g5145"
   style="fill:#ff0000">
			</g>
			<g
   id="g5147"
   style="fill:#ff0000">
			</g>
			<g
   id="g5149"
   style="fill:#ff0000">
			</g>
			<g
   id="g5151"
   style="fill:#ff0000">
			</g>
			<g
   id="g5153"
   style="fill:#ff0000">
			</g>
			<g
   id="g5155"
   style="fill:#ff0000">
			</g>
			<g
   id="g5157"
   style="fill:#ff0000">
			</g>
			<g
   id="g5159"
   style="fill:#ff0000">
			</g>
		</g>
	</g>
	<g
   id="layer1_1_"
   style="fill:#ff0000">
		<g
   id="g5060"
   transform="matrix(0.26458333,0,0,0.26458333,3.4847562,50.263701)"
   style="fill:#ff0000">
			<g
   id="g5002"
   style="fill:#ff0000">
				<g
   id="_x35_"
   style="fill:#ff0000">
					<g
   id="g4999"
   style="fill:#ff0000">
						<path
   id="path4997"
   fill="#0096FF"
   d="M611.722,136.401H312.557c-31.471,0-56.974,25.482-56.974,56.953l30.869,327.786        c0,31.454,25.523,56.951,56.992,56.951h242.174c31.469,0,56.988-25.497,56.988-56.951l26.125-327.786        C668.695,161.883,643.191,136.401,611.722,136.401z M386.157,478.369c0,15.72-12.752,28.45-28.487,28.45        c-15.735,0-28.487-12.749-28.487-28.45v-256.51c0-15.716,12.752-28.505,28.487-28.505c15.734,0,28.487,12.789,28.487,28.505        V478.369z M485.875,478.369c0,15.72-12.749,28.45-28.483,28.45s-28.487-12.749-28.487-28.45v-256.51        c0-15.716,12.752-28.505,28.487-28.505s28.483,12.789,28.483,28.505V478.369z M585.597,478.369        c0,15.72-12.749,28.45-28.487,28.45c-15.731,0-28.487-12.749-28.487-28.45v-256.51c0-15.716,12.756-28.505,28.487-28.505        c15.738,0,28.487,12.789,28.487,28.505V478.369z M297.345,107.916L642.26,19.182c19.049-4.885,30.524-24.301,25.619-43.35        c-4.901-19.047-24.32-30.522-43.369-25.678L518.492-22.559c-9.825-14.574-27.966-22.227-45.949-17.617l-41.372,10.678        C413.189-24.866,401-9.423,399.411,8.078L279.593,38.928c-19.049,4.883-30.502,24.301-25.619,43.348        C258.878,101.346,278.296,112.779,297.345,107.916z"
   style="fill:#ff0000" />
					</g>
				</g>
			</g>
			<g
   id="g5004"
   style="fill:#ff0000">
			</g>
			<g
   id="g5006"
   style="fill:#ff0000">
			</g>
			<g
   id="g5008"
   style="fill:#ff0000">
			</g>
			<g
   id="g5010"
   style="fill:#ff0000">
			</g>
			<g
   id="g5012"
   style="fill:#ff0000">
			</g>
			<g
   id="g5014"
   style="fill:#ff0000">
			</g>
			<g
   id="g5016"
   style="fill:#ff0000">
			</g>
			<g
   id="g5018"
   style="fill:#ff0000">
			</g>
			<g
   id="g5020"
   style="fill:#ff0000">
			</g>
			<g
   id="g5022"
   style="fill:#ff0000">
			</g>
			<g
   id="g5024"
   style="fill:#ff0000">
			</g>
			<g
   id="g5026"
   style="fill:#ff0000">
			</g>
			<g
   id="g5028"
   style="fill:#ff0000">
			</g>
			<g
   id="g5030"
   style="fill:#ff0000">
			</g>
			<g
   id="g5032"
   style="fill:#ff0000">
			</g>
		</g>
	</g>
</g>
<g
   id="G">
</g>
<g
   id="Rechteck_1_Kopie_3_xA0_Bild_1_">
</g>
</svg>