<svg id="Layer_1" height="512" viewBox="0 0 128 128" width="512" xmlns="http://www.w3.org/2000/svg" data-name="Layer 1"><path d="m35.638 48.347h56.727v31.306h-56.727z" fill="#9bdc05" transform="matrix(.701 .714 -.714 .701 64.83 -26.507)"/><path d="m75.392 84.529 8.927-8.764a3.663 3.663 0 0 1 .047-5.181l-26.574-27.066a3.663 3.663 0 0 1 -5.181-.047l-8.927 8.764a3.663 3.663 0 0 1 -.047 5.181l26.574 27.066a3.664 3.664 0 0 1 5.181.047z" fill="#ffd92d"/><path d="m64 13a51 51 0 1 0 51 51 51 51 0 0 0 -51-51zm-40.618 51a40.609 40.609 0 0 1 65.431-32.151l-56.963 56.962a40.431 40.431 0 0 1 -8.468-24.811zm40.618 40.62a40.43 40.43 0 0 1 -24.81-8.469l56.963-56.962a40.61 40.61 0 0 1 -32.153 65.431z" fill="#ff637b"/><g fill="#5a2b41"><path d="m82.765 60.77a1.749 1.749 0 0 0 -.023 2.474l.374.381a1.75 1.75 0 0 0 2.5-2.452l-.374-.381a1.75 1.75 0 0 0 -2.477-.022z"/><path d="m29.342 28.336a1.745 1.745 0 0 0 1.19-.467q.334-.311.675-.615a1.75 1.75 0 1 0 -2.336-2.607c-.242.217-.481.436-.72.656a1.75 1.75 0 0 0 1.191 3.033z"/><path d="m89.882 30.464a41.969 41.969 0 0 0 -25.882-8.834 42.418 42.418 0 0 0 -42.37 42.37 41.96 41.96 0 0 0 8.834 25.881 1.752 1.752 0 0 0 1.273.677h.112a1.749 1.749 0 0 0 1.237-.513l56.963-56.959a1.75 1.75 0 0 0 -.167-2.622zm-22.493 20.336-8.35-8.5a1.749 1.749 0 0 0 -1.233-.524 1.68 1.68 0 0 0 -1.243.5 1.915 1.915 0 0 1 -2.705-.025 1.748 1.748 0 0 0 -1.232-.524 1.856 1.856 0 0 0 -1.242.5l-8.927 8.764a1.75 1.75 0 0 0 -.023 2.475 1.913 1.913 0 0 1 -.025 2.706 1.751 1.751 0 0 0 -.022 2.475l4.519 4.6a1.75 1.75 0 1 0 2.5-2.452l-3.5-3.561a5.442 5.442 0 0 0 .043-4.774l6.84-6.715a5.375 5.375 0 0 0 2.382.573 5.592 5.592 0 0 0 2.391-.529l7.349 7.483-15.605 15.607-13.872-14.129 19.841-19.481 13.694 13.947zm4.055-4.055-14.9-15.173a1.75 1.75 0 0 0 -2.475-.022l-22.336 21.929a1.75 1.75 0 0 0 -.023 2.475l15.121 15.4-14.778 14.778a38.452 38.452 0 0 1 -6.923-22.132 38.914 38.914 0 0 1 38.87-38.87 38.459 38.459 0 0 1 22.133 6.923z"/><path d="m64 11.25a52.446 52.446 0 0 0 -30.017 9.367 1.751 1.751 0 0 0 2 2.877 49.272 49.272 0 1 1 -9.913 9.1 1.75 1.75 0 0 0 -2.695-2.234 52.751 52.751 0 1 0 40.625-19.11z"/><path d="m102.87 64a38.914 38.914 0 0 1 -38.87 38.87 38.466 38.466 0 0 1 -16.811-3.821 1.75 1.75 0 0 0 -1.517 3.154 41.929 41.929 0 0 0 18.328 4.167 42.418 42.418 0 0 0 42.37-42.37 41.96 41.96 0 0 0 -8.834-25.881 1.748 1.748 0 0 0 -2.622-.167l-21.476 21.475-.015.012-.015.019-35.457 35.456a1.75 1.75 0 1 0 2.475 2.474l16.13-16.129 14.9 15.173a1.755 1.755 0 0 0 1.234.524h.01a1.748 1.748 0 0 0 1.226-.5l22.341-21.935a1.75 1.75 0 0 0 .023-2.475l-6.784-6.909a1.75 1.75 0 1 0 -2.5 2.452l5.558 5.661-19.839 19.481-13.694-13.948 1.58-1.579 8.35 8.5a1.75 1.75 0 0 0 1.233.524h.016a1.75 1.75 0 0 0 1.227-.5 1.936 1.936 0 0 1 1.357-.548 1.9 1.9 0 0 1 1.348.573 1.748 1.748 0 0 0 1.232.524h.017a1.745 1.745 0 0 0 1.225-.5l8.927-8.764a1.75 1.75 0 0 0 .023-2.475 1.913 1.913 0 0 1 .025-2.706 1.751 1.751 0 0 0 .022-2.475l-8.5-8.657 18.834-18.832a38.452 38.452 0 0 1 6.923 22.132zm-20.779 6.767a5.442 5.442 0 0 0 -.043 4.774l-6.84 6.715a5.372 5.372 0 0 0 -2.382-.573 5.129 5.129 0 0 0 -2.392.529l-7.348-7.484 11.553-11.552z"/></g></svg>