<?xml version="1.0" encoding="utf-8"?>
<!-- Generator: Adobe Illustrator 16.0.3, SVG Export Plug-In . SVG Version: 6.00 Build 0)  -->
<!DOCTYPE svg PUBLIC "-//W3C//DTD SVG 1.1//EN" "http://www.w3.org/Graphics/SVG/1.1/DTD/svg11.dtd">
<svg version="1.1" xmlns="http://www.w3.org/2000/svg" xmlns:xlink="http://www.w3.org/1999/xlink" x="0px" y="0px" width="240px"
	 height="240px" viewBox="0 0 240 240" enable-background="new 0 0 240 240" xml:space="preserve">
<g id="Ellipse_1_1_" enable-background="new    ">
	<g id="layer1">
		<g id="g5189" transform="matrix(0.26458333,0,0,0.26458333,79.714271,103.05945)">
			<g id="g5133">
			</g>
			<g id="g5135">
			</g>
			<g id="g5137">
			</g>
			<g id="g5139">
			</g>
			<g id="g5141">
			</g>
			<g id="g5143">
			</g>
			<g id="g5145">
			</g>
			<g id="g5147">
			</g>
			<g id="g5149">
			</g>
			<g id="g5151">
			</g>
			<g id="g5153">
			</g>
			<g id="g5155">
			</g>
			<g id="g5157">
			</g>
			<g id="g5159">
			</g>
		</g>
	</g>
	<g id="layer1_1_">
		<g id="g4922" transform="matrix(0.26458333,0,0,0.26458333,37.730155,129.11112)">
			<g id="g4859">
				<g id="Layer_5_58_">
					<g id="g4856">
						<g id="g4848">
							<path id="path4844" fill="#95EF07" d="M483.892-158.976c-18.455-7.399-23.784-11.876-23.784-19.961
								c0-6.463,4.894-14.015,18.706-14.015c12.213,0,21.577,4.815,21.655,4.859c0.985,0.521,2.093,0.803,3.189,0.803
								c2.672,0,5.035-1.611,6.016-4.121l3.351-8.572c1.174-3.124-0.598-5.846-2.864-6.825c-7.519-3.272-22.216-5.804-22.36-5.832
								c-0.24-0.041-1.059-0.22-1.059-1.179l-0.048-12.44c0-3.748-3.126-6.799-6.969-6.799h-6.02c-3.831,0-6.961,3.049-6.961,6.799
								l0.015,13.077c0,1.004-1.089,1.441-1.484,1.534c-18.543,4.416-30.14,18.001-30.14,35.142
								c0,21.371,17.661,31.021,36.729,38.268c15.247,5.985,21.467,12.055,21.467,20.955c0,9.687-8.807,16.452-21.43,16.452
								c-10.77,0-25.353-6.834-25.493-6.902c-0.938-0.436-1.927-0.664-2.942-0.664c-2.776,0-5.193,1.683-6.156,4.281l-3.204,8.672
								c-1.141,3.235,0.613,5.867,2.857,7.033c8.954,4.667,26.283,7.4,27.058,7.515c0.207,0.037,1.259,0.406,1.259,1.367v13.025
								c0,3.743,3.126,6.793,6.976,6.793h6.216c3.842,0,6.972-3.051,6.972-6.793v-13.706c0-1.284,0.945-1.395,1.137-1.441
								c19.761-4.44,31.934-18.898,31.934-37.053C518.506-137.349,508.156-149.398,483.892-158.976L483.892-158.976z"/>
							<path id="path4846" fill="#95EF07" d="M476.126-309.707c-90.207,0-163.324,73.123-163.324,163.324
								c0,90.194,73.118,163.325,163.324,163.325c90.199,0,163.321-73.131,163.321-163.325
								C639.447-236.583,566.326-309.707,476.126-309.707z M476.126-20.912c-69.301,0-125.474-56.178-125.474-125.47
								c0-69.294,56.173-125.472,125.474-125.472c69.294,0,125.463,56.178,125.463,125.472
								C601.589-77.09,545.42-20.912,476.126-20.912z"/>
						</g>
						<g id="g4854">
							<path id="path4850" fill="#95EF07" d="M606.262,96.084c-34.735,19.167-82.493,36.891-130.132,44.362
								c-42.383,6.644-122.119-9.379-122.119-28.31c0-7.175,69.929,17.68,112.231,6.389c32.436-8.652,27.833-38.999,10.187-43
								c-17.539-3.982-120.303-41.626-164.203-42.926c-20.675-0.613-71.726,7.19-96.428,11.217
								c-8.461,1.373-13.769,1.222-14.299,9.327c-2.458,37.633-7.302,114.6-9.945,154.802c-0.055,0.849,1.128,12.276,10.554,4.23
								c10.316-8.796,24.788-18.551,38.174-15.513c21,4.765,202.677,38.054,227.735,32.226
								c35.843-8.334,137.333-68.474,156.788-87.169C654.964,112.745,631.519,82.147,606.262,96.084L606.262,96.084z"/>
							<path id="path4852" fill="#95EF07" d="M151.365,42.347l-95.173-4.691c-7.351-0.362-14.854,5.175-16.681,12.298
								L22.206,207.078c-1.825,7.127,2.7,13.192,10.049,13.476l105.478-0.011c7.352,0.281,13.828-5.488,14.391-12.819
								l11.582-151.384C164.267,49.009,158.714,42.709,151.365,42.347z M95.335,199.729c-14.533,0-26.316-11.785-26.316-26.317
								c0-14.539,11.783-26.316,26.316-26.316c14.533,0,26.313,11.785,26.313,26.316S109.87,199.729,95.335,199.729z"/>
						</g>
					</g>
				</g>
			</g>
			<g id="g4861">
			</g>
			<g id="g4863">
			</g>
			<g id="g4865">
			</g>
			<g id="g4867">
			</g>
			<g id="g4869">
			</g>
			<g id="g4871">
			</g>
			<g id="g4873">
			</g>
			<g id="g4875">
			</g>
			<g id="g4877">
			</g>
			<g id="g4879">
			</g>
			<g id="g4881">
			</g>
			<g id="g4883">
			</g>
			<g id="g4885">
			</g>
			<g id="g4887">
			</g>
			<g id="g4889">
			</g>
		</g>
	</g>
</g>
<g id="G">
</g>
<g id="Rechteck_1_Kopie_3_xA0_Bild_1_">
</g>
</svg>
