<?xml version="1.0" ?><svg enable-background="new 0 0 512 512" id="Layer_1" version="1.1" viewBox="0 0 512 512" xml:space="preserve" xmlns="http://www.w3.org/2000/svg" xmlns:xlink="http://www.w3.org/1999/xlink"><g><g><path d="M305,127h-99.3c0,0-3.4,0-3.4,0C129.7,157.4,77,247.9,77,354.8c0,131.9,80.1,142.4,179,142.4    c98.8,0,179-10.5,179-142.4C435,247.9,377.6,157.4,305,127z M303.9,396.1c-8,8.5-19,14.1-32.7,16.6v16.5c0,6.3-5.1,11.3-11.4,11.3    c-6.3,0-11.4-5.1-11.4-11.3v-15.2c-33.3-1.9-54.5-20.5-54.5-32.5c0-5.9,5.3-13.5,10.9-13.5c2.8,0,5.4,2.4,9,5.8    c6.3,5.9,15.7,14.9,34.6,16.8v-76.4c-11.9-4.2-23.3-8.5-32.4-15.9c-11.4-9.2-17-21.6-17-38c0-16.5,5.7-29.5,17-38.4    c10.2-8.1,23.2-11.2,32.4-12.4v-14.6c0-6.3,5.1-11.3,11.4-11.3c6.3,0,11.4,5.1,11.4,11.3v13.9c9.7,0.7,19.1,2.6,26.4,5.3    c10,3.6,15.2,8.4,15.2,13.8c0,4.6-3.8,13.5-10.7,13.5c-2.3,0-4.8-1.3-8-2.9c-5.1-2.6-12-6.1-23-7.3v65.5    c10.9,4.2,23.3,9.7,32.4,19.1c9.7,10,14.4,23,14.4,39.9C318,372.4,313.2,386.1,303.9,396.1z" fill="#F7941E"/><g><path d="M298.6,390.8c-8,8.3-18.2,12.6-29.4,14.7c-3.2,0.6-5.5,4.1-5.5,7.2c0,3.9,0,7.8,0,11.7c0,3,0.9,8-3.2,8.7     c-7.1,1.2-4.5-15.3-4.5-19c0-4.3-3.4-7.2-7.5-7.5c-11.9-0.8-23.7-3.8-33.9-10.1c-3.7-2.3-7.3-5.1-10-8.5c-1.7-2.1-3-4.7-3.1-6.1     c0,1,0.1-1.1,0.2-1.3c0.4-1.3,0.9-2.6,1.8-3.6c0.6-0.6,1.2-1.2,2-1.6c-1.3,0.5-1.2-0.7,0,0.8c2.5,3.2,6.6,6.3,9.8,8.8     c9.8,7.8,20.9,11.7,33.3,13.2c4,0.5,7.5-3.8,7.5-7.5c0-25.5,0-50.9,0-76.4c0-3.5-2.4-6.1-5.5-7.2c-12.2-4.3-25.1-8.9-34.1-18.6     c-7.5-8.1-9.9-18.9-9.7-29.6c0.2-10.8,3.7-21.2,11.6-28.8c8.6-8.2,20.7-11.6,32.2-13.2c3.2-0.4,5.5-4.3,5.5-7.2     c0-3.7,0-7.4,0-11.1c0-2.9-0.5-7,3.6-7.3c6.6-0.5,4.2,14,4.2,17.7c0,4.3,3.5,7.2,7.5,7.5c8.8,0.7,18,2.2,26.1,5.6     c4.4,1.9,9.3,4,7.3,8.7c-0.6,1.4-1.4,3-2.8,3.1c-2.2,0.1-5.6-2.7-7.5-3.6c-7.4-3.5-14.9-5.5-23.1-6.5c-4-0.5-7.5,3.8-7.5,7.5     c0,21.8,0,43.7,0,65.5c0,3.6,2.4,6,5.5,7.2c17,6.5,33.7,16,39.1,34.6C313.2,355.7,310.9,377.2,298.6,390.8     c-6.5,7.1,4.1,17.8,10.6,10.6c16-17.6,20.1-44.4,13.6-67c-6.9-24-27.4-36.6-49.5-45.1c1.8,2.4,3.7,4.8,5.5,7.2     c0-21.8,0-43.7,0-65.5c-2.5,2.5-5,5-7.5,7.5c4.9,0.6,9.9,2,14.5,4c4.2,1.9,8.2,4.6,12.7,5.7c10.5,2.6,19.1-6.2,21.3-15.8     c5.7-24.6-32.1-29.9-48.5-31.3c2.5,2.5,5,5,7.5,7.5c0-4.6,0.2-9.3,0-13.9c-0.5-10.5-8.7-19.2-19.5-18.8     c-10.4,0.3-17.8,8.9-18.2,18.9c-0.2,4.8,0,9.7,0,14.6c1.8-2.4,3.7-4.8,5.5-7.2c-14.6,2-29.3,7.4-39.8,18     c-10.1,10.3-14.7,24.2-15.1,38.4c-0.3,14.3,3.6,28.4,13.2,39.2c10.7,12.3,26.7,18.2,41.7,23.5c-1.8-2.4-3.7-4.8-5.5-7.2     c0,25.5,0,50.9,0,76.4c2.5-2.5,5-5,7.5-7.5c-7.2-0.8-14.1-3.1-20.2-7.1c-4.3-2.8-7.7-6.5-11.6-9.8c-6.3-5.5-13.6-7.8-20.9-2.5     c-5.7,4.2-9.7,11.6-9.3,18.7c0.6,10.9,9.6,19.5,18,25.3c12.8,8.9,28.6,12.8,44,13.8c-2.5-2.5-5-5-7.5-7.5c0,5-0.2,10.1,0,15.1     c0.5,10.7,9.1,19.7,20.2,18.9c10.4-0.8,17.2-9.4,17.5-19.4c0.2-5.3,0-10.6,0-15.9c-1.8,2.4-3.7,4.8-5.5,7.2     c13.6-2.6,26.3-8.5,36-18.6C315.9,394.5,305.3,383.8,298.6,390.8z" fill="#020202"/><path d="M305,119.5c-25.7,0-51.5,0-77.2,0c-5.8,0-11.6,0-17.5,0c-2.9,0-6.2-0.4-9.1,0.1     c-5.2,0.9-10.8,4.5-15.5,6.9c-4.5,2.4-9,5.1-13.3,7.9c-9.3,6.2-18.1,13.3-26.2,21.1c-35.6,34.1-58.2,80.7-68.9,128.4     c-6.1,27-8.7,54.9-7.6,82.6c0.9,22.2,4.1,44.7,12.8,65.3c6.6,15.7,16.4,30,29.7,40.8c13.1,10.6,28.3,17.8,44.5,22.5     c36.6,10.5,76.3,10.1,114.1,9.6c36.1-0.5,74.4-2.4,107.5-18.3c33.1-16,52.5-47.1,59.7-82.4c10.4-51.1,3.7-107.2-15.1-155.6     c-17.4-44.7-46.2-85.9-86.4-112.8c-8.8-5.9-18-10.9-27.7-15c-3.8-1.6-8-1.1-10.3,2.7c-1.9,3.1-1,8.7,2.7,10.3     c73.1,31,115.5,111.4,124.3,187.3c4.2,36.1,4.2,77.7-12.4,111c-11.8,23.6-32,39.2-56.7,47.3c-28.4,9.2-58.9,10.4-88.5,10.7     c-30.8,0.3-62.4,0.5-92.7-5.6c-25.3-5.1-49.5-15.2-65.9-35.7c-20.9-26.2-24.9-62.7-24.7-95.1c0.4-77.4,30.4-164.6,98.7-207.8     c7.3-4.6,14.9-8.6,22.8-11.9c-1.3,0.3-2.5,0.7-3.8,1c29.9-0.1,59.7,0,89.6,0c4.4,0,8.8,0,13.2,0     C314.7,134.5,314.7,119.5,305,119.5z" fill="#020202"/></g></g><g><g><path d="M302.3,94.8h-92.5c-11-21.6-27.3-60.4-12.6-75.1C217.8-1,255,50.6,256,52c0,0,0,0,0,0     s37.9-53.3,58.8-32.3C329.6,34.4,313.2,73.2,302.3,94.8z" fill="#F7941E"/><g><path d="M302.3,87.3c-26.9,0-53.8,0-80.7,0c-3.9,0-7.8,0-11.8,0c2.2,1.2,4.3,2.5,6.5,3.7      c-5.8-11.5-11-23.3-14.5-35.7c-2.4-8.5-6.2-22.5,0.4-30c2.3-2.7,4.3-3.1,7.3-3c0.6,0,2.6,0.4,4.3,1c1.7,0.6,3.2,1.3,5.1,2.4      c8,4.6,14.7,11.2,20.8,18c2.7,3,5.3,6.1,7.8,9.3c1.3,1.6-0.2-0.2,0.4,0.5c0.3,0.4,0.7,0.9,1,1.3c0.6,0.8,1.2,1.8,1.9,2.5      c3.7,3.7,9,2.4,11.8-1.5c0.2-0.3,0.4-0.5,0.5-0.8c0.4-0.6,2.3-3,1-1.4c2.1-2.7,4.2-5.3,6.5-7.8c5.8-6.7,12.2-13.3,19.6-18.2      c3.6-2.4,6.6-4,10.5-5c2.4-0.6,5.1-0.5,7.2,0.9c7.4,4.9,5.8,17.6,4,25.8c-3.2,14.6-9.3,28.4-16,41.7c-4.3,8.6,8.6,16.2,13,7.6      c7-13.8,13.4-28.2,17-43.3c3.1-13.1,4.9-29.5-4.9-40.2C303-4.4,277.2,16.7,264,30.7c-5.2,5.5-10.1,11.4-14.5,17.5      c3.9-0.5,7.9-1,11.8-1.5c2.4,2.4,0.8,1.1,0.2,0.2c-1.1-1.5-2.3-3-3.5-4.5c-2.6-3.3-5.3-6.5-8.1-9.6      c-7.3-8.1-15.7-16.1-25.5-21.1c-10.1-5.1-21.7-6.4-30.8,1.2c-10.9,9.1-10.7,24.4-8.4,37.2c3.1,17,10.4,33.2,18.1,48.5      c1.2,2.3,4,3.7,6.5,3.7c26.9,0,53.8,0,80.7,0c3.9,0,7.8,0,11.8,0C311.9,102.3,311.9,87.3,302.3,87.3z" fill="#020202"/></g></g></g><g><g><path d="M303.6,315.7c-9.1-9.4-21.5-14.9-32.4-19.1V231c10.9,1.2,17.9,4.8,23,7.3c3.2,1.6,5.7,2.9,8,2.9     c6.9,0,10.7-8.9,10.7-13.5c0-5.4-5.3-10.1-15.2-13.8c-7.3-2.6-16.7-4.5-26.4-5.3v-13.9c0-6.3-5.1-11.3-11.4-11.3     c-6.3,0-11.4,5.1-11.4,11.3v14.6c-9.2,1.2-22.2,4.3-32.4,12.4c-11.3,8.9-17,21.8-17,38.4c0,16.4,5.6,28.9,17,38     c9.1,7.3,20.5,11.7,32.4,15.9v76.4c-18.8-1.9-28.3-10.8-34.6-16.8c-3.5-3.4-6.1-5.8-9-5.8c-5.6,0-10.9,7.6-10.9,13.5     c0,12,21.2,30.6,54.5,32.5v15.2c0,6.3,5.1,11.3,11.4,11.3c6.3,0,11.4-5.1,11.4-11.3v-16.5c13.7-2.5,24.7-8.1,32.7-16.6     c9.4-10,14.1-23.7,14.1-40.6C318,338.7,313.3,325.7,303.6,315.7z M248.5,288.3c-15.9-6.4-25.7-13.7-25.7-30.2     c0-8,2.8-14.4,8.2-18.9c4.3-3.6,10.2-6.1,17.6-7.4V288.3z M286.9,380c-3.8,4.3-9.1,7.4-15.7,9.2v-65.9     c6.5,3.1,11.3,6.5,14.8,10.5c5.6,6.2,8.3,14.1,8.3,24C294.4,367,291.8,374.5,286.9,380z" fill="#FBB040"/><g><path d="M281.6,374.7c-3.5,3.7-7.5,5.8-12.4,7.3c3.2,2.4,6.3,4.8,9.5,7.2c0-22,0-43.9,0-65.9      c-3.8,2.2-7.5,4.3-11.3,6.5c8.2,4.1,15.7,9.3,18.3,18.6C288,356.9,287.5,367.8,281.6,374.7c-6.2,7.3,4.4,18,10.6,10.6      c9.2-10.9,11.5-25.7,8.3-39.5c-3.2-13.7-13.4-22.9-25.5-29c-5-2.5-11.3,0.5-11.3,6.5c0,22,0,43.9,0,65.9c0,4.8,4.8,8.6,9.5,7.2      c7.2-2.1,13.8-5.6,19-11.1C298.8,378.3,288.2,367.7,281.6,374.7z" fill="#020202"/><path d="M250.5,281.1c-8.8-3.6-18.3-8.5-19.9-18.7c-0.9-5.4-0.2-11.4,3.4-15.7c4-4.8,10.7-6.6,16.6-7.7      c-3.2-2.4-6.3-4.8-9.5-7.2c0,18.9,0,37.7,0,56.6c0,9.7,15,9.7,15,0c0-18.9,0-37.7,0-56.6c0-5.2-4.8-8.2-9.5-7.2      c-8.8,1.7-17.8,5.3-23.8,12.3c-6.1,7.2-8.2,16.7-7.1,26c2,17.7,15.7,26.5,30.9,32.8c3.8,1.5,8.2-1.7,9.2-5.2      C257,286,254.2,282.6,250.5,281.1z" fill="#020202"/><path d="M308.9,310.4c-10-10-22.6-16-35.7-21c1.8,2.4,3.7,4.8,5.5,7.2c0-21.8,0-43.7,0-65.5      c-2.5,2.5-5,5-7.5,7.5c4.9,0.6,9.9,2,14.5,4c4.2,1.9,8.2,4.6,12.7,5.7c10.5,2.6,19.1-6.2,21.3-15.8      c5.7-24.6-32.1-29.9-48.5-31.3c2.5,2.5,5,5,7.5,7.5c0-4.6,0.2-9.3,0-13.9c-0.5-10.5-8.7-19.2-19.5-18.8      c-10.4,0.3-17.8,8.9-18.2,18.9c-0.2,4.8,0,9.7,0,14.6c1.8-2.4,3.7-4.8,5.5-7.2c-14.6,2-29.3,7.4-39.8,18      c-10.1,10.3-14.7,24.2-15.1,38.4c-0.3,14.3,3.6,28.4,13.2,39.2c10.7,12.3,26.7,18.2,41.7,23.5c-1.8-2.4-3.7-4.8-5.5-7.2      c0,25.5,0,50.9,0,76.4c2.5-2.5,5-5,7.5-7.5c-7.2-0.8-14.1-3.1-20.2-7.1c-4.3-2.8-7.7-6.5-11.6-9.8c-6.3-5.5-13.6-7.8-20.9-2.5      c-5.7,4.2-9.7,11.6-9.3,18.7c0.6,10.9,9.6,19.5,18,25.3c12.8,8.9,28.6,12.8,44,13.8c-2.5-2.5-5-5-7.5-7.5c0,5-0.2,10.1,0,15.1      c0.5,10.7,9.1,19.7,20.2,18.9c10.4-0.8,17.2-9.4,17.5-19.4c0.2-5.3,0-10.6,0-15.9c-1.8,2.4-3.7,4.8-5.5,7.2      c23.5-4.5,43-19.6,49.6-43.2C329.1,354.2,325.3,327.8,308.9,310.4c-6.6-7-17.2,3.6-10.6,10.6c12.7,13.5,14.8,34.5,10,51.8      c-5.2,18.8-20.6,29.1-39.1,32.7c-3.2,0.6-5.5,4.1-5.5,7.2c0,3.9,0,7.8,0,11.7c0,3,0.9,8-3.2,8.7c-7.1,1.2-4.5-15.3-4.5-19      c0-4.3-3.4-7.2-7.5-7.5c-11.9-0.8-23.7-3.8-33.9-10.1c-3.7-2.3-7.3-5.1-10-8.5c-1.7-2.1-3-4.7-3.1-6.1c0,1,0.1-1.1,0.2-1.3      c0.4-1.3,0.9-2.6,1.8-3.6c0.6-0.6,1.2-1.2,2-1.6c-1.3,0.5-1.2-0.7,0,0.8c2.5,3.2,6.6,6.3,9.8,8.8c9.8,7.8,20.9,11.7,33.3,13.2      c4,0.5,7.5-3.8,7.5-7.5c0-25.5,0-50.9,0-76.4c0-3.5-2.4-6.1-5.5-7.2c-12.2-4.3-25.1-8.9-34.1-18.6c-7.5-8.1-9.9-18.9-9.7-29.6      c0.2-10.8,3.7-21.2,11.6-28.8c8.6-8.2,20.7-11.6,32.2-13.2c3.2-0.4,5.5-4.3,5.5-7.2c0-3.7,0-7.4,0-11.1c0-2.9-0.5-7,3.6-7.3      c6.6-0.5,4.2,14,4.2,17.7c0,4.3,3.5,7.2,7.5,7.5c8.8,0.7,18,2.2,26.1,5.6c4.4,1.9,9.3,4,7.3,8.7c-0.6,1.4-1.4,3-2.8,3.1      c-2.2,0.1-5.6-2.7-7.5-3.6c-7.4-3.5-14.9-5.5-23.1-6.5c-4-0.5-7.5,3.8-7.5,7.5c0,21.8,0,43.7,0,65.5c0,3.6,2.4,6,5.5,7.2      c10.6,4.1,21,9,29.1,17.2C305.1,327.8,315.7,317.2,308.9,310.4z" fill="#020202"/></g></g><g><path d="M248.5,231.7v56.6c-15.9-6.4-25.7-13.7-25.7-30.2c0-8,2.8-14.4,8.2-18.9     C235.2,235.5,241.1,233,248.5,231.7" fill="#F7941E"/><g><path d="M241,231.7c0,18.9,0,37.7,0,56.6c3.2-2.4,6.3-4.8,9.5-7.2c-8.8-3.6-18.3-8.5-19.9-18.7      c-0.9-5.4-0.2-11.4,3.4-15.7c4-4.8,10.7-6.6,16.6-7.7c9.5-1.9,5.5-16.3-4-14.5c-8.8,1.7-17.8,5.3-23.8,12.3      c-6.1,7.2-8.2,16.7-7.1,26c2,17.7,15.7,26.5,30.9,32.8c4.6,1.9,9.5-2.8,9.5-7.2c0-18.9,0-37.7,0-56.6      C256,222.1,241,222,241,231.7L241,231.7z" fill="#020202"/></g></g><g><path d="M294.4,357.8c0,9.2-2.5,16.6-7.4,22.2c-3.8,4.3-9.1,7.4-15.7,9.2v-65.9c6.5,3.1,11.3,6.5,14.8,10.5     C291.6,340,294.4,347.9,294.4,357.8z" fill="#F7941E"/><g><path d="M286.9,357.8c-0.2,12.1-5.8,20.7-17.6,24.2c3.2,2.4,6.3,4.8,9.5,7.2c0-22,0-43.9,0-65.9      c-3.8,2.2-7.5,4.3-11.3,6.5c5.5,2.7,11.1,5.9,14.7,11C285.7,345.9,286.8,351.8,286.9,357.8c0.1,9.6,15.1,9.7,15,0      c-0.1-8.6-1.9-17.3-6.8-24.6c-5-7.4-12.2-12.5-20.1-16.4c-5-2.5-11.3,0.5-11.3,6.5c0,22,0,43.9,0,65.9c0,4.8,4.8,8.6,9.5,7.2      c18.3-5.4,28.3-19.8,28.7-38.6C302,348.2,287,348.2,286.9,357.8z" fill="#020202"/></g></g></g></g><g><path d="M334.3,110.9c0,4.5-1.8,8.5-4.7,11.4c-2.9,2.9-6.9,4.7-11.4,4.7H194.3c-8.9,0-16.1-7.2-16.1-16.1   c0-4.5,1.8-8.5,4.7-11.4c2.9-2.9,6.9-4.7,11.4-4.7h123.8C327,94.8,334.3,102,334.3,110.9z" fill="#FBB040"/><g><path d="M326.8,110.9c-0.5,10-10.8,8.6-17.8,8.6c-10.7,0-21.4,0-32.1,0c-24.1,0-48.1,0-72.2,0    c-5.4,0-13.6,1.5-17.3-3.5c-4.4-6,0.5-13.3,7.2-13.7c2.1-0.1,4.2,0,6.3,0c23.1,0,46.1,0,69.2,0c12.6,0,25.1,0,37.7,0    C315,102.3,326.3,100.5,326.8,110.9c0.4,9.6,15.4,9.7,15,0c-0.5-11.9-8.8-22-20.9-23.4c-2.4-0.3-4.7-0.2-7.1-0.2    c-10.4,0-20.9,0-31.3,0c-26.7,0-53.3,0-80,0c-2.6,0-5.1-0.1-7.7,0c-9.6,0.2-18.3,5.4-22.1,14.4c-4.6,10.9-0.2,23.9,10.2,29.8    c4.3,2.4,9,3,13.8,3c24.2,0,48.3,0,72.5,0c13.6,0,27.3,0,40.9,0c2.6,0,5.3,0.1,7.9,0c13.4-0.4,23.1-10.3,23.8-23.6    C342.2,101.2,327.2,101.2,326.8,110.9z" fill="#020202"/></g></g></svg>