<?xml version="1.0" ?><svg viewBox="0 0 128 128" xmlns="http://www.w3.org/2000/svg"><defs><style>.cls-1{fill:#48b749;}.cls-2{fill:#bccd30;}.cls-3{fill:#fd0;}.cls-4{fill:#314967;}</style></defs><title/><g data-name="14 Payment" id="_14_Payment"><path class="cls-1" d="M67.2,92.49,48.86,110.83a4,4,0,0,1-5.63,0L17.17,84.78a4,4,0,0,1,0-5.63l62-62a4,4,0,0,1,5.63,0l26.06,26.06a4,4,0,0,1,0,5.63L92.49,67.2"/><path class="cls-2" d="M71.88,75.5a13.94,13.94,0,1,1,3.62-3.61"/><path class="cls-2" d="M84.78,17.17a4,4,0,0,0-5.63,0l-7,7a13.94,13.94,0,0,0,19.72,0h0Z"/><path class="cls-2" d="M17.17,84.78l7,7a13.94,13.94,0,0,0,0-19.72l-7,7A4,4,0,0,0,17.17,84.78Z"/><path class="cls-2" d="M110.83,43.22l-7-7h0a13.94,13.94,0,0,0,0,19.72l7-7A4,4,0,0,0,110.83,43.22Z"/><path class="cls-2" d="M36.18,103.79h0l7,7a4,4,0,0,0,5.63,0l7-7A13.94,13.94,0,0,0,36.18,103.79Z"/><circle class="cls-3" cx="89.5" cy="89.5" r="22.5"/><path class="cls-4" d="M100.34,35.56l.72.72a16,16,0,0,0,0,19.52l-9.31,9.31C91,65,90.25,65,89.5,65a2,2,0,0,0,0,4,20.42,20.42,0,0,1,11.31,3.4A2,2,0,0,0,103,69.07a24.37,24.37,0,0,0-6.52-3l15.75-15.75a6,6,0,0,0,0-8.46l-7-7h0l-2-2A2,2,0,0,0,100.34,35.56Zm9.08,11.89-5.5,5.5a12,12,0,0,1,0-13.81l5.5,5.5A2,2,0,0,1,109.42,47.44Z"/><path class="cls-4" d="M89.25,75a1.89,1.89,0,0,0-1.9,1.87v.24c-4.08.49-6.78,3.1-6.78,6.6s2,5.68,6.91,7v5.4a11.21,11.21,0,0,1-4-1.95c-2.42-1.88-5.24,2-2.54,3.74a14.42,14.42,0,0,0,6.42,2.55v1.58a1.89,1.89,0,0,0,3.77,0v-1.51C95.32,100,98,97.43,98,93.86s-2.1-5.72-7-7v-5.2a11.9,11.9,0,0,1,2.6,1.2A2.25,2.25,0,1,0,95.9,79a12.27,12.27,0,0,0-4.78-1.79V76.9A1.85,1.85,0,0,0,89.25,75ZM87.48,85.85c-2-.75-2.14-1.48-2.14-2.33,0-1.12.77-1.89,2.14-2.16v4.49ZM91,96.34V91.69c1.86.68,2.24,1.39,2.24,2.4,0,1.49-1.23,2-2.24,2.25Z"/><path class="cls-4" d="M65.48,33.66l6.72-6.72a15.91,15.91,0,0,0,19.52,0l4.87,4.87A2,2,0,0,0,99.41,29L86.19,15.75a6,6,0,0,0-8.46,0L62.65,30.83C60.75,32.73,63.65,35.49,65.48,33.66ZM80.56,18.58a2,2,0,0,1,2.81,0l5.5,5.5a12,12,0,0,1-13.81,0Z"/><path class="cls-4" d="M50,49.15,61.54,37.6a2,2,0,0,0-2.83-2.83L47.16,46.32C45.25,48.23,48.15,51,50,49.15Z"/><path class="cls-4" d="M58.28,98.59l-2.48,2.48a16,16,0,0,0-19.52,0l-9.34-9.34a16,16,0,0,0,0-19.52l18.8-18.8a2,2,0,0,0-2.83-2.83L22.8,70.68h0l-7,7a6,6,0,0,0,0,8.46l26.06,26.06a6,6,0,0,0,8.46,0l10.83-10.83A2,2,0,0,0,58.28,98.59Zm-39.7-18,5.5-5.5a12,12,0,0,1,0,13.81l-5.5-5.5A2,2,0,0,1,18.58,80.56Zm28.86,28.86a2,2,0,0,1-2.81,0l-5.5-5.5a12,12,0,0,1,13.81,0Z"/><path class="cls-4" d="M108.26,73.74a2,2,0,0,0-3.06,2.57C116.36,89.6,106.88,110,89.5,110a20.5,20.5,0,0,1-6.07-40.09,2,2,0,0,0-1.18-3.82,24.86,24.86,0,0,0-2.61,1A15.94,15.94,0,1,0,48.06,64a2,2,0,0,0,4,0,11.94,11.94,0,1,1,22,6.5A24.27,24.27,0,0,0,70.49,74a11.94,11.94,0,0,1-17-4.25A2,2,0,0,0,50,71.7a15.93,15.93,0,0,0,17,7.94,24.55,24.55,0,0,0-1.95,12.12L62.2,94.66c-1.9,1.9,1,4.66,2.83,2.83l1-1A24.54,24.54,0,0,0,89.5,114C110.32,114,121.57,89.57,108.26,73.74Z"/><path class="cls-4" d="M62.63,56.52a7.2,7.2,0,0,0-3.31,1.37l-.13-.13a1.17,1.17,0,1,0-1.55,1.76c-1.57,2-1.61,4.33-.08,5.87,1.84,1.84,3.83,1.34,6.11,0L66,67.81a7,7,0,0,1-2.61.9A1.4,1.4,0,1,0,64,71.46a8.94,8.94,0,0,0,3.93-1.69c.49.49.87,1,1.5,1a1.17,1.17,0,0,0,.84-2l-.66-.66c1.6-2.08,1.63-4.4.07-6-1.83-1.83-3.89-1.32-6.15,0L61.21,59.9a7.37,7.37,0,0,1,1.67-.61,1.4,1.4,0,0,0-.25-2.76Zm-2.24,7.07c-.88,0-1.65-1.07-.84-2.28l2,2a2.87,2.87,0,0,1-1.13.31Zm7.26,2.75-2-2c1.18-.55,1.63-.33,2,.07a1.47,1.47,0,0,1,0,2Z"/></g></svg>