<?xml version="1.0" encoding="utf-8"?>
<!-- Generator: Adobe Illustrator 16.0.3, SVG Export Plug-In . SVG Version: 6.00 Build 0)  -->
<!DOCTYPE svg PUBLIC "-//W3C//DTD SVG 1.1//EN" "http://www.w3.org/Graphics/SVG/1.1/DTD/svg11.dtd">
<svg version="1.1" xmlns="http://www.w3.org/2000/svg" xmlns:xlink="http://www.w3.org/1999/xlink" x="0px" y="0px" width="240px"
	 height="240px" viewBox="0 0 240 240" enable-background="new 0 0 240 240" xml:space="preserve">
<g id="Ellipse_1_1_" enable-background="new    ">
	<g id="Ellipse_1">
		<g>
			<circle fill-rule="evenodd" clip-rule="evenodd" fill="#90F400" cx="126.2" cy="121.84" r="86.04"/>
		</g>
	</g>
</g>
<g id="G">
	<g>
		<rect x="60.878" y="55.295" fill="none" width="123.753" height="131.299"/>
		<path d="M172.465,83.175c0,1.825-0.078,3.396-0.234,4.717c-0.158,1.321-0.379,2.375-0.662,3.16
			c-0.283,0.787-0.629,1.337-1.039,1.651c-0.41,0.315-0.896,0.472-1.463,0.472c-0.818,0-2.141-0.566-3.965-1.698
			c-1.826-1.132-4.25-2.359-7.271-3.679c-3.021-1.321-6.625-2.547-10.811-3.679c-4.186-1.132-9.049-1.698-14.588-1.698
			c-5.916,0-11.268,1.023-16.051,3.066c-4.784,2.044-8.875,4.938-12.274,8.679c-3.399,3.743-6.012,8.24-7.836,13.49
			c-1.827,5.252-2.738,11.054-2.738,17.405c0,6.981,0.928,13.129,2.785,18.443c1.856,5.315,4.453,9.764,7.79,13.349
			c3.336,3.585,7.349,6.29,12.039,8.113c4.689,1.825,9.867,2.735,15.533,2.735c2.768,0,5.506-0.313,8.213-0.943
			c2.707-0.628,5.225-1.571,7.555-2.83v-28.301h-23.133c-1.133,0-2.016-0.708-2.645-2.123s-0.943-3.82-0.943-7.217
			c0-1.76,0.078-3.238,0.236-4.434c0.156-1.194,0.393-2.154,0.707-2.877c0.314-0.723,0.693-1.257,1.133-1.604
			c0.439-0.345,0.945-0.519,1.512-0.519h41.26c1.008,0,1.904,0.174,2.691,0.519c0.787,0.347,1.479,0.865,2.078,1.557
			c0.598,0.693,1.053,1.525,1.369,2.5c0.314,0.976,0.471,2.092,0.471,3.349v48.584c0,1.888-0.33,3.538-0.99,4.953
			c-0.662,1.415-2.016,2.532-4.061,3.349c-2.047,0.818-4.578,1.668-7.6,2.548c-3.021,0.881-6.154,1.636-9.396,2.264
			s-6.514,1.1-9.818,1.415c-3.305,0.314-6.625,0.472-9.961,0.472c-9.758,0-18.492-1.4-26.202-4.198
			c-7.711-2.797-14.243-6.854-19.592-12.169c-5.351-5.314-9.442-11.793-12.274-19.434c-2.833-7.642-4.249-16.305-4.249-25.99
			c0-10,1.511-18.977,4.532-26.934c3.021-7.956,7.301-14.717,12.841-20.283c5.538-5.566,12.227-9.826,20.064-12.783
			c7.837-2.956,16.571-4.434,26.202-4.434c5.287,0,10.102,0.363,14.445,1.085c4.344,0.724,8.135,1.604,11.377,2.642
			c3.242,1.038,5.932,2.155,8.072,3.349c2.141,1.196,3.637,2.233,4.486,3.113c0.85,0.881,1.463,2.123,1.84,3.727
			C172.277,77.656,172.465,80.03,172.465,83.175z"/>
	</g>
</g>
<g id="Rechteck_1_Kopie_3_xA0_Bild_1_">
	<g>
		<path fill-rule="evenodd" clip-rule="evenodd" d="M139.589,42.38c0,8.496,0,16.992,0,25.592c-3.73,0-7.385,0-11.224,0
			c0-8.53,0-17.061,0-25.592C132.107,42.38,135.848,42.38,139.589,42.38z"/>
		<path fill-rule="evenodd" clip-rule="evenodd" d="M107.101,42.971c3.676,0,7.353,0,11.125,0c0,8.561,0,17.029,0,25.696
			c-3.701,0-7.413,0-11.125,0C107.101,60.102,107.101,51.537,107.101,42.971z"/>
		<path fill-rule="evenodd" clip-rule="evenodd" d="M107.101,174.698c3.678,0,7.357,0,11.223,0c0,8.631,0,17.163,0,25.696
			c-3.741,0-7.482,0-11.223,0C107.101,191.828,107.101,183.264,107.101,174.698z"/>
		<path fill-rule="evenodd" clip-rule="evenodd" d="M128.365,198.395c0-8.496,0-16.992,0-25.591c3.731,0,7.386,0,11.224,0
			c0,10.529,0,19.059,0,25.591C135.848,198.395,132.107,198.395,128.365,198.395z"/>
	</g>
</g>
</svg>
