<?xml version="1.0" ?><!DOCTYPE svg  PUBLIC '-//W3C//DTD SVG 1.1//EN'  'http://www.w3.org/Graphics/SVG/1.1/DTD/svg11.dtd'><svg height="100%" style="fill-rule:evenodd;clip-rule:evenodd;stroke-linejoin:round;stroke-miterlimit:1.41421;" version="1.1" viewBox="0 0 288 309" width="100%" xml:space="preserve" xmlns="http://www.w3.org/2000/svg" xmlns:xlink="http://www.w3.org/1999/xlink"><g transform="matrix(4.16667,0,0,4.16667,0,0)"><rect height="73.701" style="fill:rgb(13,53,127);fill-rule:nonzero;" width="68.031" x="0" y="0.299"/><rect height="46.162" style="fill:white;fill-rule:nonzero;" width="64.627" x="1.705" y="1.999"/><path d="M50.363,10.376L37.682,40.645L29.401,40.645L23.158,16.486C22.781,15.002 22.449,14.458 21.302,13.823C19.412,12.807 16.306,11.847 13.572,11.252L13.755,10.376L27.081,10.376C28.777,10.376 30.306,11.507 30.694,13.459L33.992,30.971L42.141,10.376L50.363,10.376Z" style="fill:rgb(13,53,127);fill-rule:nonzero;"/><path d="M19.716,59.989C20.015,60.075 20.417,60.098 20.918,60.098C22.757,60.098 23.88,59.153 23.88,57.504C23.88,55.942 22.839,55.106 21.135,55.106C20.459,55.106 19.976,55.168 19.716,55.231L19.716,59.989ZM17.276,53.434C18.156,53.27 19.377,53.145 21.039,53.145C22.839,53.145 24.16,53.54 25.019,54.293C25.822,54.981 26.342,56.083 26.342,57.403C26.342,58.739 25.94,59.84 25.179,60.598C24.201,61.618 22.659,62.098 20.918,62.098C20.459,62.098 20.037,62.075 19.716,62.012L19.716,67.317L17.276,67.317L17.276,53.434Z" style="fill:white;fill-rule:nonzero;"/><path d="M35.606,61.387L34.545,57.926C34.285,57.067 34.065,56.106 33.863,55.293L33.826,55.293C33.625,56.106 33.425,57.09 33.186,57.926L32.146,61.387L35.606,61.387ZM31.744,63.329L30.584,67.317L28.042,67.317L32.366,53.247L35.504,53.247L39.891,67.317L37.246,67.317L36.025,63.329L31.744,63.329Z" style="fill:white;fill-rule:nonzero;"/><path d="M45.074,67.317L45.074,61.45L40.813,53.247L43.609,53.247L45.232,56.856C45.691,57.903 46.031,58.692 46.395,59.657L46.432,59.657C46.773,58.758 47.156,57.879 47.613,56.856L49.236,53.247L52.018,53.247L47.533,61.387L47.533,67.317L45.074,67.317Z" style="fill:white;fill-rule:nonzero;"/></g></svg>